<svg xmlns="http://www.w3.org/2000/svg" viewBox="0 0 340 340">
  <path d="M30 290 L160 160 L290 290 Z" fill="black"/>
  <path d="M26.8 33.9 L30.3 30.3 L32.7 32.7 L29.2 36.3 Z M26.8 48.0 L37.4 37.4 L39.8 39.8 L29.2 50.4 Z M26.8 62.2 L44.5 44.5 L46.9 46.9 L29.2 64.6 Z M26.8 76.3 L51.5 51.5 L54.0 54.0 L29.2 78.7 Z M26.8 90.4 L58.6 58.6 L61.0 61.0 L29.2 92.8 Z M26.8 104.6 L65.7 65.7 L68.1 68.1 L29.2 107.0 Z M26.8 118.7 L72.8 72.8 L75.2 75.2 L29.2 121.1 Z M26.8 132.9 L79.8 79.8 L82.2 82.2 L29.2 135.3 Z M26.8 147.0 L86.9 86.9 L89.3 89.3 L29.2 149.4 Z M26.8 161.1 L94.0 94.0 L96.4 96.4 L29.2 163.6 Z M26.8 175.3 L101.0 101.0 L103.4 103.4 L29.2 177.7 Z M26.8 189.4 L108.1 108.1 L110.5 110.5 L29.2 191.8 Z M26.8 203.6 L115.2 115.2 L117.6 117.6 L29.2 206.0 Z M26.8 217.7 L122.3 122.3 L124.7 124.7 L29.2 220.1 Z M26.8 231.9 L129.3 129.3 L131.7 131.7 L29.2 234.3 Z M26.8 246.0 L136.4 136.4 L138.8 138.8 L29.2 248.4 Z M26.8 260.1 L143.5 143.5 L145.9 145.9 L29.2 262.5 Z M26.8 274.3 L150.5 150.5 L152.9 152.9 L29.2 276.7 Z M26.8 288.4 L157.6 157.6 L160.0 160.0 L29.2 290.8 Z" fill="black"/>
  <path d="M33.0 33.0 L37.4 28.6 L40.3 31.4 L35.8 35.8 Z M41.8 41.8 L55.1 28.6 L57.9 31.4 L44.7 44.7 Z M50.7 50.7 L72.8 28.6 L75.6 31.4 L53.5 53.5 Z M59.5 59.5 L90.5 28.6 L93.3 31.4 L62.4 62.4 Z M68.4 68.4 L108.1 28.6 L111.0 31.4 L71.2 71.2 Z M77.2 77.2 L125.8 28.6 L128.6 31.4 L80.0 80.0 Z M86.0 86.0 L143.5 28.6 L146.3 31.4 L88.9 88.9 Z M94.9 94.9 L161.2 28.6 L164.0 31.4 L97.7 97.7 Z M103.7 103.7 L178.8 28.6 L181.7 31.4 L106.5 106.5 Z M112.6 112.6 L196.5 28.6 L199.4 31.4 L115.4 115.4 Z M121.4 121.4 L214.2 28.6 L217.0 31.4 L124.2 124.2 Z M130.2 130.2 L231.9 28.6 L234.7 31.4 L133.1 133.1 Z M139.1 139.1 L249.6 28.6 L252.4 31.4 L141.9 141.9 Z M147.9 147.9 L267.2 28.6 L270.1 31.4 L150.7 150.7 Z M156.7 156.7 L284.9 28.6 L287.7 31.4 L159.6 159.6 Z" fill="black"/>
</svg>