<?xml version="1.0" encoding="UTF-8" standalone="no"?>
<!DOCTYPE svg PUBLIC "-//W3C//DTD SVG 1.1//EN" "http://www.w3.org/Graphics/SVG/1.1/DTD/svg11.dtd">
<svg width="100%" height="100%" viewBox="0 0 1080 1080" version="1.1" xmlns="http://www.w3.org/2000/svg" xmlns:xlink="http://www.w3.org/1999/xlink" xml:space="preserve" xmlns:serif="http://www.serif.com/" style="fill-rule:evenodd;clip-rule:evenodd;stroke-linejoin:round;stroke-miterlimit:2;">
    <g transform="matrix(2.71396,0,0,2.782,-349.164,-78.7162)">
        <g transform="matrix(213.631,0,0,-213.631,220.304,389.29)">
            <path d="M-0.017,-0.011L-0.017,0.082C-0.017,0.092 -0.012,0.103 0.003,0.112C0.023,0.124 0.064,0.136 0.122,0.145C0.126,0.146 0.13,0.145 0.133,0.143C0.145,0.136 0.157,0.13 0.17,0.124C0.125,0.118 0.087,0.112 0.059,0.104C0.043,0.099 0.03,0.095 0.022,0.09C0.02,0.089 0.019,0.088 0.018,0.087C0.019,0.087 0.02,0.086 0.022,0.085C0.022,0.085 0.023,0.084 0.023,0.084C0.02,0.082 0.018,0.081 0.017,0.08L0.017,-0.009C0.018,-0.01 0.021,-0.012 0.023,-0.014C0.032,-0.019 0.044,-0.023 0.06,-0.028C0.143,-0.05 0.309,-0.065 0.5,-0.065C0.691,-0.065 0.857,-0.05 0.94,-0.028C0.956,-0.023 0.968,-0.019 0.977,-0.014C0.979,-0.012 0.982,-0.01 0.983,-0.009L0.983,0.08C0.982,0.081 0.979,0.083 0.976,0.085L0.977,0.085C0.978,0.086 0.979,0.087 0.98,0.087C0.979,0.088 0.978,0.089 0.977,0.09C0.968,0.095 0.955,0.099 0.939,0.104C0.913,0.111 0.878,0.118 0.835,0.123C0.848,0.129 0.86,0.136 0.872,0.142C0.876,0.144 0.88,0.145 0.884,0.144C0.939,0.135 0.979,0.123 0.998,0.111C1.01,0.103 1.016,0.094 1.017,0.086C1.017,0.084 1.017,0.083 1.017,0.082L1.017,-0.011L1.016,-0.018L1.014,-0.024C1.012,-0.027 1.01,-0.03 1.007,-0.034C0.997,-0.043 0.978,-0.052 0.949,-0.06C0.865,-0.083 0.695,-0.099 0.5,-0.099C0.305,-0.099 0.135,-0.083 0.051,-0.06C0.022,-0.052 0.003,-0.043 -0.007,-0.034C-0.01,-0.03 -0.012,-0.027 -0.014,-0.024L-0.016,-0.018L-0.017,-0.011Z"/>
        </g>
        <g transform="matrix(0.350432,0,0,0.472352,142.15,-110.197)">
            <path d="M405.822,1039.74C443.01,1041.45 484.114,1042.39 527.323,1042.39C573.274,1042.39 616.844,1041.33 655.857,1039.41C715.939,1036.46 765.208,1031.5 795.709,1025.32C805.302,1023.38 812.886,1021.36 818.098,1019.19C819.894,1020.02 821.462,1020.9 822.131,1021.29L822.131,1034.67C816.448,1036.53 809.509,1038.33 801.38,1039.97C750.008,1050.39 646.52,1057.61 527.323,1057.61C408.126,1057.61 304.638,1050.39 253.265,1039.97C245.618,1038.42 239.024,1036.74 233.538,1035L233.538,1021.3C234.147,1020.95 235.5,1020.2 237.119,1019.43C242.307,1021.51 249.688,1023.45 258.937,1025.32C290.619,1031.74 342.553,1036.85 405.822,1039.74Z"/>
        </g>
        <g transform="matrix(0.355926,-0.00083164,0.00089355,0.355686,136.426,22.3788)">
            <path d="M377.233,105.329C233.314,159.43 124.137,284.749 92.616,438.237L71.523,438.187C103.901,273.372 221.949,139.139 377.287,83.725L377.233,105.329Z"/>
        </g>
        <g transform="matrix(0.355926,-0.00083164,0.00089355,0.355686,136.426,22.3788)">
            <path d="M696.675,84.164C852.088,140.092 969.953,274.988 1001.63,440.362L980.538,440.313C949.659,286.279 840.633,160.326 696.62,105.752L696.675,84.164Z"/>
        </g>
        <g transform="matrix(0.355926,-0.00083164,0.00089355,0.355686,136.426,22.3788)">
            <path d="M303.318,942.019C175.279,869.499 84.265,739.11 66.014,586.479L66.001,586.369C66.829,586.444 67.668,586.483 68.515,586.485L86.874,586.528C106.193,741.019 203.359,871.485 337.832,937.26C350.171,943.295 362.823,948.785 375.758,953.7C425.682,972.667 479.819,983.054 536.367,983.054C591.806,983.054 644.927,973.071 694.034,954.806C706.976,949.992 719.64,944.603 731.993,938.67C867.36,873.656 965.514,743.311 985.592,588.629L1002.92,588.67C1004.12,588.672 1005.31,588.6 1006.48,588.456L1006.45,588.678C987.441,741.58 895.375,871.928 766.336,943.748C764.658,944.681 762.974,945.605 761.284,946.519C694.348,982.713 617.734,1003.27 536.366,1003.27C453.798,1003.27 376.124,982.102 308.491,944.906C306.76,943.954 305.036,942.992 303.318,942.019Z"/>
        </g>
        <g transform="matrix(0,156.995,156.995,0,327.879,210.373)">
            <path d="M-0.205,-0.945C-0.499,-0.874 -0.739,-0.654 -0.851,-0.364C-0.857,-0.348 -0.862,-0.333 -0.867,-0.317C-0.9,-0.217 -0.917,-0.111 -0.917,0C-0.917,0.11 -0.9,0.215 -0.868,0.313C-0.863,0.329 -0.858,0.345 -0.852,0.36C-0.741,0.652 -0.5,0.874 -0.205,0.945C-0.204,0.933 -0.194,0.923 -0.182,0.923L0.108,0.923C0.121,0.923 0.131,0.933 0.131,0.946L0.131,0.959C0.576,0.892 0.917,0.488 0.917,0C0.917,-0.488 0.576,-0.892 0.131,-0.959L0.131,-0.95C0.131,-0.937 0.121,-0.926 0.108,-0.926L-0.182,-0.926C-0.193,-0.926 -0.202,-0.934 -0.205,-0.945ZM-0.272,-0.687C-0.17,-0.737 -0.055,-0.766 0.066,-0.766C0.488,-0.766 0.83,-0.424 0.83,-0.002C0.83,0.42 0.488,0.763 0.066,0.763C-0.056,0.763 -0.172,0.734 -0.275,0.683C-0.362,0.508 -0.415,0.266 -0.415,0C-0.415,-0.268 -0.361,-0.511 -0.272,-0.687Z"/>
        </g>
        <g transform="matrix(-27.9477,0,0,12.1137,327.625,297.951)">
            <path d="M-0,-0.408C0.495,-0.408 0.967,-0.687 1.395,-1.191C1.141,0.22 0.612,1.191 -0,1.191C-0.612,1.191 -1.141,0.22 -1.395,-1.191C-0.967,-0.687 -0.495,-0.408 -0,-0.408Z" style="fill-rule:nonzero;"/>
        </g>
        <g transform="matrix(20.2345,0,0,-7.64442,369.137,216.256)">
            <path d="M-1.071,-0.327C-1.154,-0.597 -1.049,-0.979 -0.922,-0.871C-0.63,-0.622 -0.32,-0.488 -0,-0.488C0.32,-0.488 0.63,-0.622 0.922,-0.871C1.049,-0.979 1.154,-0.597 1.071,-0.327C0.809,0.528 0.426,1.068 -0,1.068C-0.426,1.068 -0.809,0.528 -1.071,-0.327Z" style="fill-rule:nonzero;"/>
        </g>
        <g transform="matrix(0,21.7532,14.1199,0,286.115,218.219)">
            <ellipse cx="0" cy="-0" rx="1.047" ry="1.004"/>
        </g>
        <g transform="matrix(0.358839,0,0,0.359453,132.464,28.2948)">
            <path d="M385.473,135.041L385.473,50.549C385.473,46.3 388.23,42.515 392.347,41.111C439.682,24.969 490.417,16.154 543.193,16.031C596.419,15.907 647.613,24.633 695.374,40.815C699.502,42.213 702.268,46.003 702.268,50.26L702.268,134.504C695.507,131.942 688.66,129.539 681.732,127.302L681.732,57.431C638.084,43.43 591.539,35.918 543.242,36.031C495.369,36.142 449.254,43.737 406.009,57.705L406.009,127.759C399.08,130.023 392.233,132.452 385.473,135.041Z"/>
        </g>
        <g transform="matrix(0,-32.3321,-32.3321,0,166.896,218.6)">
            <path d="M-0.381,-0.368L-0.381,0.172C-0.381,0.181 -0.381,0.191 -0.38,0.2C-0.366,0.357 -0.235,0.482 -0.074,0.482L0.943,0.482C1.114,0.482 1.25,0.342 1.25,0.172L1.25,-0.368C1.25,-0.376 1.249,-0.384 1.248,-0.391C1.237,-0.443 1.193,-0.482 1.139,-0.482L-0.27,-0.482C-0.331,-0.482 -0.381,-0.431 -0.381,-0.368ZM1.027,0.181C1.023,0.223 0.986,0.254 0.943,0.254L-0.074,0.254C-0.101,0.254 -0.125,0.242 -0.14,0.223C-0.152,0.209 -0.159,0.192 -0.159,0.172L-0.159,-0.254L1.028,-0.254L1.028,0.172C1.028,0.175 1.028,0.178 1.027,0.181Z"/>
        </g>
        <g transform="matrix(0,-32.3321,32.3321,0,488.355,218.6)">
            <path d="M-0.381,0.172L-0.381,-0.368C-0.381,-0.431 -0.331,-0.482 -0.27,-0.482L1.139,-0.482C1.198,-0.482 1.246,-0.435 1.25,-0.376C1.25,-0.374 1.25,-0.371 1.25,-0.368L1.25,0.172C1.25,0.342 1.114,0.482 0.943,0.482L-0.074,0.482C-0.231,0.482 -0.36,0.363 -0.379,0.211C-0.38,0.198 -0.381,0.185 -0.381,0.172ZM-0.159,0.172C-0.159,0.198 -0.147,0.221 -0.128,0.236C-0.113,0.247 -0.094,0.254 -0.074,0.254L0.943,0.254C0.982,0.254 1.016,0.228 1.025,0.192C1.027,0.186 1.028,0.179 1.028,0.172L1.028,-0.254L-0.159,-0.254L-0.159,0.172Z"/>
        </g>
    </g>
</svg>
